<?xml version="1.0" encoding="UTF-8"?>
<svg id="Layer_2" data-name="Layer 2" xmlns="http://www.w3.org/2000/svg" xmlns:xlink="http://www.w3.org/1999/xlink" viewBox="0 0 154.51 39.62">
  <defs>
    <style>
      .cls-1 {
        fill: #003b71;
      }

      .cls-1, .cls-2, .cls-3, .cls-4 {
        stroke-width: 0px;
      }

      .cls-2 {
        fill: #1b3e6f;
      }

      .cls-3 {
        fill: none;
      }

      .cls-5 {
        clip-path: url(#clippath-1);
      }

      .cls-4 {
        fill: #93d500;
      }

      .cls-6 {
        clip-path: url(#clippath);
      }
    </style>
    <clipPath id="clippath">
      <rect class="cls-3" width="154.51" height="39.62"/>
    </clipPath>
    <clipPath id="clippath-1">
      <rect class="cls-3" y="0" width="154.51" height="39.62"/>
    </clipPath>
  </defs>
  <g id="Layer_1-2" data-name="Layer 1">
    <g id="Artwork_14" data-name="Artwork 14">
      <g class="cls-6">
        <g class="cls-5">
          <path class="cls-1" d="m11.37,2.06c3.05,0,8.51,1.29,8.51,4.92v2.22h-2.96v-1.29c0-1.9-3.21-2.86-5.49-2.86-4.56,0-8.1,3.44-8.1,8.55s3.57,8.9,8.19,8.9,7.17-3.09,7.17-3.09l1.73,2.31s-3.21,3.79-8.93,3.79C4.72,25.51,0,20.27,0,13.59S4.88,2.06,11.37,2.06"/>
          <path class="cls-1" d="m47.4,22.36h1.09c.45,0,.68-.26.71-.71l1.54-19.21h3.31l5.33,12.02c.55,1.22,1.12,2.86,1.12,2.86h.06s.58-1.64,1.12-2.86l5.33-12.02h3.31l1.54,19.21c.03.45.26.71.71.71h1.06v2.76h-2.86c-1.45,0-1.96-.61-2.06-2.06l-.93-11.98c-.1-1.35-.06-3.34-.06-3.34h-.06s-.64,2.12-1.19,3.34l-4.59,9.96h-2.7l-4.59-9.96c-.55-1.19-1.22-3.37-1.22-3.37h-.06s.03,2.02-.06,3.37l-.9,11.98c-.1,1.45-.61,2.06-2.09,2.06h-2.86v-2.76Z"/>
          <path class="cls-1" d="m77.6,5.2h-2.09v-2.76h9.99c4.14,0,7.1,2.8,7.1,7.1s-2.96,7.2-7.1,7.2h-4.69v8.39h-3.21V5.2Zm7.39,8.77c2.67,0,4.31-1.7,4.31-4.43s-1.64-4.34-4.27-4.34h-4.21v8.77h4.18Z"/>
          <path class="cls-1" d="m91.84,22.36h.45c.58,0,.87-.13,1.06-.71l7.1-19.21h3.37l7.1,19.21c.19.58.51.71,1.06.71h.48v2.76h-1.8c-1.61,0-2.12-.39-2.63-1.86l-1.7-4.66h-8.35l-1.7,4.66c-.55,1.48-1.06,1.86-2.67,1.86h-1.77v-2.76Zm13.69-6.46l-2.47-6.91c-.42-1.19-.9-3.18-.9-3.18h-.06s-.45,1.99-.87,3.18l-2.47,6.91h6.78Z"/>
          <path class="cls-1" d="m115.81,19.86s2.31,2.73,5.69,2.73c2.12,0,3.89-1.29,3.89-3.37,0-4.76-10.96-4.02-10.96-11.08,0-3.41,2.99-6.07,7.26-6.07,2.41,0,6.46,1.09,6.46,4.18v1.86h-2.96v-1.06c0-1.19-1.7-2.06-3.5-2.06-2.44,0-3.98,1.35-3.98,3.05,0,4.59,10.92,3.57,10.92,11.02,0,3.47-2.7,6.46-7.2,6.46-4.82,0-7.52-3.37-7.52-3.37l1.9-2.28Z"/>
          <path class="cls-1" d="m132.93,19.86s2.31,2.73,5.69,2.73c2.12,0,3.89-1.29,3.89-3.37,0-4.76-10.96-4.02-10.96-11.08,0-3.41,2.99-6.07,7.26-6.07,2.41,0,6.46,1.09,6.46,4.18v1.86h-2.96v-1.06c0-1.19-1.7-2.06-3.5-2.06-2.44,0-3.98,1.35-3.98,3.05,0,4.59,10.92,3.57,10.92,11.02,0,3.47-2.7,6.46-7.2,6.46-4.82,0-7.52-3.37-7.52-3.37l1.9-2.28Z"/>
          <path class="cls-2" d="m148.73,2.49h-1.06v-.44h2.73v.44h-1.06v2.92h-.62v-2.92Zm2.33-.44h.51l1.22,2.02,1.22-2.02h.49v3.35h-.55v-2.36l-1,1.64h-.33l-1-1.64v2.36h-.55v-3.35Z"/>
          <polygon class="cls-1" points="37.03 16.26 33.01 14.38 29 16.26 33.01 8.84 37.03 16.26"/>
          <path class="cls-4" d="m46.49,13.48l-6.18-2.05c-.24-.88-.64-1.69-1.16-2.41l.25-.95.42-1.59-1.59.42-1.02.27c-.65-.44-1.38-.77-2.15-1L33.02,0l-2.05,6.18c-.83.23-1.6.61-2.29,1.09l-1.14-.31-1.59-.42.42,1.59.32,1.18c-.42.64-.75,1.35-.96,2.11l-6.18,2.05,6.18,2.05c.2.71.5,1.37.88,1.98l-.38,1.41-.42,1.59,1.59-.42,1.34-.36c.68.46,1.43.82,2.24,1.05l2.05,6.18h0s2.05-6.18,2.05-6.18c.76-.21,1.48-.54,2.12-.97l1.17.32,1.59.42-.42-1.59-.31-1.13c.49-.69.86-1.47,1.09-2.3l6.18-2.05Zm-13.47,6.26c-3.46,0-6.26-2.8-6.26-6.26s2.8-6.26,6.26-6.26,6.26,2.8,6.26,6.26-2.8,6.26-6.26,6.26"/>
          <path class="cls-4" d="m34.2,1.76l.38,1.12c4.66.68,8.35,4.37,9.04,9.03l1.12.38c-.56-5.55-4.98-9.98-10.53-10.53m-12.9,10.53l1.12-.38c.68-4.66,4.39-8.36,9.06-9.03l.38-1.12c-5.56.55-10,4.97-10.55,10.53m22.32,2.71c-.67,4.68-4.38,8.4-9.06,9.07l-.38,1.12c5.57-.55,10.02-4.99,10.56-10.57l-1.12.37Zm-12.13,9.08c-4.69-.67-8.41-4.39-9.07-9.09l-1.12-.38c.54,5.58,4.99,10.04,10.56,10.58l-.37-1.12Z"/>
          <path class="cls-1" d="m31.96,31.45h2.66c2.43,0,3.96,1.66,3.96,4.02s-1.54,4.02-3.96,4.02h-2.66v-8.05Zm1.1.85v6.34h1.51c1.85,0,2.87-1.21,2.87-3.17s-1.01-3.17-2.87-3.17h-1.51Z"/>
          <rect class="cls-1" x="43.22" y="31.45" width="1.1" height="8.05"/>
          <path class="cls-1" d="m48.65,38.36l.73-.72c.48.73,1.4,1.05,2.24,1.05,1.12,0,1.7-.57,1.7-1.34,0-.63-.39-1.11-1.29-1.32l-1-.23c-1.32-.31-1.95-1.06-1.95-2.06,0-1.35,1.15-2.41,2.78-2.41,1.04,0,2.12.43,2.59,1.12l-.73.72c-.4-.65-1.19-.91-1.9-.91-1.06,0-1.62.6-1.62,1.35,0,.71.49,1.13,1.26,1.3l1.01.22c1.23.27,1.98,1.01,1.98,2.09,0,1.33-1.15,2.4-2.89,2.4-1.16,0-2.38-.48-2.89-1.26"/>
          <path class="cls-1" d="m58.61,35.47c0-2.26,1.59-4.15,3.79-4.15,1.35,0,2.49.71,3.01,2l-.89.52c-.41-1.09-1.23-1.59-2.2-1.59-1.56,0-2.57,1.32-2.57,3.21s1.01,3.21,2.57,3.21c.96,0,1.78-.5,2.2-1.59l.89.52c-.52,1.29-1.66,2-3.01,2-2.21,0-3.79-1.89-3.79-4.15"/>
          <path class="cls-1" d="m69.39,35.47c0-2.24,1.6-4.15,3.69-4.15s3.7,1.9,3.7,4.15-1.6,4.15-3.7,4.15-3.69-1.9-3.69-4.15m6.24,0c0-1.89-1.05-3.21-2.55-3.21s-2.55,1.32-2.55,3.21,1.05,3.21,2.55,3.21,2.55-1.32,2.55-3.21"/>
          <polygon class="cls-1" points="80.38 31.45 81.55 31.45 83.93 38.19 86.32 31.45 87.43 31.45 84.46 39.5 83.36 39.5 80.38 31.45"/>
          <polygon class="cls-1" points="91.54 31.45 96.35 31.45 96.35 32.32 92.64 32.32 92.64 34.93 96.03 34.93 96.03 35.79 92.64 35.79 92.64 38.63 96.35 38.63 96.35 39.5 91.54 39.5 91.54 31.45"/>
          <path class="cls-1" d="m101.01,31.45h2.23c2.11,0,3.27.77,3.27,2.17,0,1.09-.74,1.79-2.07,1.95v.02c1.22.09,1.83.55,1.83,1.87v.7c0,.61.13,1.02.37,1.34h-1.15c-.21-.26-.33-.65-.33-1.27v-.67c0-1.16-.43-1.56-1.57-1.56h-1.48v3.5h-1.1v-8.05Zm1.1.85v2.88h1.1c1.45,0,2.16-.46,2.16-1.44s-.71-1.44-2.16-1.44h-1.1Z"/>
          <polygon class="cls-1" points="112.86 36.4 110.16 31.45 111.34 31.45 113.42 35.47 115.52 31.45 116.67 31.45 113.96 36.4 113.96 39.5 112.86 39.5 112.86 36.4"/>
        </g>
      </g>
    </g>
  </g>
</svg>