<?xml version="1.0" encoding="utf-8"?>
<!-- Generator: Adobe Illustrator 27.9.0, SVG Export Plug-In . SVG Version: 6.00 Build 0)  -->
<svg version="1.1" id="Group_2435" xmlns="http://www.w3.org/2000/svg" xmlns:xlink="http://www.w3.org/1999/xlink" x="0px" y="0px"
	 viewBox="0 0 35.2 30.3" style="enable-background:new 0 0 35.2 30.3;" xml:space="preserve">
<style type="text/css">
	.st0{clip-path:url(#SVGID_00000000943611572966648960000011015690025946723495_);}
	.st1{fill-rule:evenodd;clip-rule:evenodd;fill:#0083C2;}
</style>
<g>
	<defs>
		<rect id="SVGID_1_" x="1.4" y="0.7" width="29.4" height="28.8"/>
	</defs>
	<clipPath id="SVGID_00000064352940950711833010000008622035692730983813_">
		<use xlink:href="#SVGID_1_"  style="overflow:visible;"/>
	</clipPath>
	<g id="Group_2434" style="clip-path:url(#SVGID_00000064352940950711833010000008622035692730983813_);">
		<path id="Path_3823" class="st1" d="M23.4,8.6c0-0.6,0.5-1,1.1-1c0.5,0,1,0.5,1,1v4.1c0,0.6-0.5,1-1.1,1c-0.5,0-1-0.5-1-1V8.6z"/>
		<path id="Path_3824" class="st1" d="M17.9,8.6c0-0.6,0.5-1,1.1-1c0.5,0,1,0.5,1,1v4.1c0,0.6-0.4,1-1,1.1c-0.6,0-1-0.4-1.1-1
			c0,0,0,0,0-0.1V8.6z"/>
		<path id="Path_3825" class="st1" d="M12.4,8.6c0-0.6,0.5-1,1.1-1c0.5,0,1,0.5,1,1v4.1c0,0.6-0.5,1-1.1,1c-0.5,0-1-0.5-1-1V8.6z"/>
		<path id="Path_3826" class="st1" d="M25.8,21.9c2.1,0,3.8,1.7,3.8,3.8s-1.7,3.8-3.8,3.8c-2.1,0-3.8-1.7-3.8-3.8v0
			C22,23.6,23.7,21.9,25.8,21.9 M25.8,24c-0.9,0-1.7,0.8-1.7,1.7c0,0.9,0.8,1.7,1.7,1.7c0.9,0,1.7-0.8,1.7-1.7
			C27.5,24.8,26.7,24,25.8,24"/>
		<path id="Path_3827" class="st1" d="M12.8,21.9c2.1,0,3.8,1.7,3.8,3.8c0,2.1-1.7,3.8-3.8,3.8S9,27.8,9,25.7l0,0
			C9,23.6,10.7,21.9,12.8,21.9z M12.8,24c-0.9,0-1.7,0.8-1.7,1.7c0,0.9,0.8,1.7,1.7,1.7c0.9,0,1.7-0.8,1.7-1.7
			C14.5,24.8,13.7,24,12.8,24z"/>
		<path id="Path_3828" class="st1" d="M2.5,2.7c-0.6,0-1-0.4-1.1-1s0.4-1,1-1.1c0,0,0,0,0.1,0h3c1.1,0,2.1,0.8,2.3,1.9l3.4,15.3
			c0.2,0.8,0.9,1.3,1.7,1.3h14.3c0.6,0,1,0.4,1.1,1c0,0.6-0.4,1-1,1.1c0,0,0,0-0.1,0H12.9c-1.8,0-3.3-1.2-3.7-3L5.8,3
			c0-0.2-0.2-0.3-0.3-0.3H2.5z"/>
		<path id="Path_3829" class="st1" d="M27.6,15.2l1.1-9.7H7.3c-0.6,0-1-0.4-1.1-1c0-0.6,0.4-1,1-1.1c0,0,0,0,0.1,0h21.9
			c0.9,0,1.7,0.8,1.7,1.7c0,0.1,0,0.1,0,0.2l-1.2,10.4c-0.1,0.8-0.7,1.4-1.5,1.5l-17.3,2c-0.6,0.1-1.1-0.4-1.1-0.9
			c-0.1-0.5,0.3-1,0.9-1.1L27.6,15.2z"/>
	</g>
</g>
</svg>
