<svg id="Group_28" data-name="Group 28" xmlns="http://www.w3.org/2000/svg" width="71.712" height="71.696" viewBox="0 0 71.712 71.696">
  <g id="Group_26" data-name="Group 26">
    <g id="Group_25" data-name="Group 25">
      <g id="Group_24" data-name="Group 24">
        <g id="Group_23" data-name="Group 23" transform="translate(25.176 23.529)">
          <g id="Group_22" data-name="Group 22">
            <g id="Group_21" data-name="Group 21">
              <path id="Path_3695" data-name="Path 3695" d="M62.169-1416.887l-10.678-5.007-10.675,5.007,10.675-19.728Z" transform="translate(-40.816 1436.615)" fill="#fff"/>
            </g>
          </g>
        </g>
        <path id="Path_3696" data-name="Path 3696" d="M70.9-1429.744v.015a20.091,20.091,0,0,0-3.11-6.409l.686-2.546,1.127-4.221-4.216,1.132-2.71.727a19.986,19.986,0,0,0-5.748-2.648h.016l-5.451-16.45-5.451,16.45a20.1,20.1,0,0,0-6.1,2.894l-3.033-.809-4.216-1.132,1.127,4.221.846,3.151a20.023,20.023,0,0,0-2.577,5.64v-.015l-16.45,5.456,16.45,5.446a20.091,20.091,0,0,0,2.346,5.271v.005l-1,3.745-1.127,4.222,4.216-1.133,3.561-.953a19.954,19.954,0,0,0,5.963,2.8l5.451,16.439,5.451-16.439a20,20,0,0,0,5.645-2.582l3.12.835,4.216,1.127-1.132-4.217-.8-3a20.2,20.2,0,0,0,2.91-6.122l16.434-5.446.016-.005ZM51.5-1407.633a16.658,16.658,0,0,1-16.655-16.655,16.659,16.659,0,0,1,16.655-16.66,16.66,16.66,0,0,1,16.655,16.66A16.659,16.659,0,0,1,51.5-1407.633Z" transform="translate(-15.64 1460.144)" fill="#fff"/>
      </g>
    </g>
    <path id="Path_3697" data-name="Path 3697" d="M54.644-1455.467l1,2.984a28.547,28.547,0,0,1,24.04,24.032l2.984,1.005A31.389,31.389,0,0,0,54.644-1455.467Zm-34.318,28.012,2.981-1a28.555,28.555,0,0,1,24.1-24.038l1-2.978A31.381,31.381,0,0,0,20.326-1427.455Zm59.372,7.217a28.551,28.551,0,0,1-24.111,24.143l-1,2.981a31.385,31.385,0,0,0,28.091-28.12Zm-32.271,24.146a28.55,28.55,0,0,1-24.137-24.174l-2.975-1a31.381,31.381,0,0,0,28.109,28.154Z" transform="translate(-15.64 1460.144)" fill="#fff"/>
  </g>
  <g id="Group_27" data-name="Group 27" transform="translate(58.14 7.606)">
    <path id="Path_3698" data-name="Path 3698" d="M74.619-1452.029H73.78v-.509h2.389v.509H75.33v2.333h-.711Zm2.043-.509h.573l.961,1.518.96-1.518H79.7v2.842h-.629v-1.744l-.719,1.131H78.01l-.719-1.131v1.744h-.629Z" transform="translate(-73.78 1452.538)" fill="#fff"/>
  </g>
</svg>
